{"title":"Rescue Dawn-720p MP4 AAC x264 BRRip 2006-CC","uid":7991367,"size":3420351378,"categoryP":"video","categoryS":"hd___movies","magnet":"?xt=urn:btih:519319941b7a5e4dfc4cae30e32fcc515f1b0e2d&amp;dn=Rescue+Dawn-720p+MP4+AAC+x264+BRRip+2006-CC&amp;tr=udp%3A%2F%2Ftracker.openbittorrent.com%3A80&amp;tr=udp%3A%2F%2Fopen.demonii.com%3A1337&amp;tr=udp%3A%2F%2Ftracker.coppersurfer.tk%3A6969&amp;tr=udp%3A%2F%2Fexodus.desync.com%3A6969","seeders":1,"leechers":0,"uploader":"Caveman44","files":-1,"time":1357428515,"description":" &lt;a href=&quot;http://www.imdb.com/title/tt0462504/&quot; rel=&quot;nofollow&quot; target=&quot;_NEW&quot;&gt;http://www.imdb.com/title/tt0462504/&lt;/a&gt;\n\nSource: Rescue.Dawn.2006.720p.BluRay.DTS.x264-CtrlHD Thanks!\n\nSubs: Arabic, Brazilian, Bulgarian, Danish, Dutch, English, Farsi-Persian, Indonesian, Servian, Slovenian, Swedish, Turkish and Vietnamese.\n\nSample and Screens included.\n\nGeneral\nComplete name                            : Rescue Dawn-720p MP4 AAC x264 BRRip 2006-CC.mp4\nFormat                                   : MPEG-4\nFormat profile                           : Base Media\nCodec ID                                 : isom\nFile size                                : 3.15 GiB\nDuration                                 : 2h 5mn\nOverall bit rate mode                    : Variable\nOverall bit rate                         : 3 594 Kbps\nEncoded date                             : UTC 2012-12-27 14:55:16\n\nVideo\nID                                       : 1\nFormat                                   : AVC\nFormat/Info                              : Advanced Video Codec\nFormat profile                           : &lt;a class=&quot;__cf_email__&quot; href=&quot;/cdn-cgi/l/email-protection&quot; data-cfemail=&quot;145c7d737c5458203a25&quot;&gt;[email&amp;#160;protected]&lt;/a&gt;&lt;script cf-hash='f9e31' type=&quot;text/javascript&quot;&gt;\n/* &lt;![CDATA[ */!function(){try{var t=&quot;currentScript&quot;in document?document.currentScript:function(){for(var t=document.getElementsByTagName(&quot;script&quot;),e=t.length;e--;)if(t[e].getAttribute(&quot;cf-hash&quot;))return t[e]}();if(t&amp;&amp;t.previousSibling){var e,r,n,i,c=t.previousSibling,a=c.getAttribute(&quot;data-cfemail&quot;);if(a){for(e=&quot;&quot;,r=parseInt(a.substr(0,2),16),n=2;a.length-n;n+=2)i=parseInt(a.substr(n,2),16)^r,e+=String.fromCharCode(i);e=document.createTextNode(e),c.parentNode.replaceChild(e,c)}}}catch(u){}}();/* ]]&gt; */&lt;/script&gt;\nFormat settings, CABAC                   : Yes\nFormat settings, ReFrames                : 5 frames\nCodec ID                                 : avc1\nCodec ID/Info                            : Advanced Video Coding\nDuration                                 : 2h 5mn\nSource duration                          : 2h 5mn\nBit rate                                 : 3 224 Kbps\nMaximum bit rate                         : 10.1 Mbps\nWidth                                    : 1 280 pixels\nHeight                                   : 700 pixels\nDisplay aspect ratio                     : 1.85:1\nFrame rate mode                          : Variable\nFrame rate                               : 23.976 fps\nMinimum frame rate                       : 19.048 fps\nMaximum frame rate                       : 24.390 fps\nColor space                              : YUV\nChroma subsampling                       : 4:2:0\nBit depth                                : 8 bits\nScan type                                : Progressive\nBits/(Pixel*Frame)                       : 0.150\nStream size                              : 2.81 GiB (89%)\nSource stream size                       : 2.81 GiB (89%)\nWriting library                          : x264 core 112\n\nAudio\nID                                       : 2\nFormat                                   : AAC\nFormat/Info                              : Advanced Audio Codec\nFormat profile                           : LC\nCodec ID                                 : 40\nDuration                                 : 2h 5mn\nBit rate mode                            : Variable\nBit rate                                 : 384 Kbps\nMaximum bit rate                         : 668 Kbps\nChannel(s)                               : 6 channels\nChannel positions                        : Front: L C R, Side: L R, LFE\nSampling rate                            : 48.0 KHz\nCompression mode                         : Lossy\nDelay relative to video                  : 105ms\nStream size                              : 344 MiB (11%)\nLanguage                                 : English\n\nEnjoy...\n\nRequested by RobinJo.\n\nComing soon: Apocalypse Hitler, S.Darko, Domino, Mercury Rising, Twilight Samurai and more..","torrent":{"xt":"urn:btih:519319941b7a5e4dfc4cae30e32fcc515f1b0e2d","amp;dn":"Rescue+Dawn-720p+MP4+AAC+x264+BRRip+2006-CC","amp;tr":["udp%3A%2F%2Ftracker.openbittorrent.com%3A80","udp%3A%2F%2Fopen.demonii.com%3A1337","udp%3A%2F%2Ftracker.coppersurfer.tk%3A6969","udp%3A%2F%2Fexodus.desync.com%3A6969"],"infoHash":"519319941b7a5e4dfc4cae30e32fcc515f1b0e2d","infoHashBuffer":{"type":"Buffer","data":[81,147,25,148,27,122,94,77,252,76,174,48,227,47,204,81,95,27,14,45]},"announce":[],"urlList":[]}}